<?xml version="1.0" encoding="UTF-8" standalone="no"?>
<!-- Created with Inkscape (http://www.inkscape.org/) -->

<svg
   width="210mm"
   height="297mm"
   viewBox="0 0 210 297"
   version="1.1"
   id="svg5"
   inkscape:version="1.2 (dc2aeda, 2022-05-15)"
   sodipodi:docname="backgroundv1.svg"
   xmlns:inkscape="http://www.inkscape.org/namespaces/inkscape"
   xmlns:sodipodi="http://sodipodi.sourceforge.net/DTD/sodipodi-0.dtd"
   xmlns="http://www.w3.org/2000/svg"
   xmlns:svg="http://www.w3.org/2000/svg">
  <sodipodi:namedview
     id="namedview7"
     pagecolor="#ffffff"
     bordercolor="#000000"
     borderopacity="0.25"
     inkscape:showpageshadow="2"
     inkscape:pageopacity="0.0"
     inkscape:pagecheckerboard="0"
     inkscape:deskcolor="#d1d1d1"
     inkscape:document-units="mm"
     showgrid="false"
     inkscape:zoom="1.3481031"
     inkscape:cx="398.33748"
     inkscape:cy="765.52007"
     inkscape:window-width="1685"
     inkscape:window-height="958"
     inkscape:window-x="90"
     inkscape:window-y="53"
     inkscape:window-maximized="0"
     inkscape:current-layer="layer1" />
  <defs
     id="defs2" />
  <g
     inkscape:label="Layer 1"
     inkscape:groupmode="layer"
     id="layer1">
    <path
       style="fill:none;stroke:none;stroke-width:0.264583"
       d="m 44.097223,113.61519 c 31.64624,-15.04493 70.555557,-32.165027 74.187087,16.08252 3.63154,48.24755 -23.864375,54.47304 1.03758,66.40523 24.90196,11.93219 37.87174,20.75163 39.9469,-7.78186 2.07516,-28.5335 -4.66912,-100.645427 2.07516,-119.840689 6.74428,-19.195261 7.78187,-20.232843 7.78187,-20.232843"
       id="path200" />
    <path
       style="fill:none;stroke:none;stroke-width:0.264583"
       d="m 104.91761,117.26086 4.11442,62.23055 c 0,0 -24.172195,-93.088668 -28.800913,-93.60297 -4.628719,-0.514302 -28.286612,-13.371854 -26.743705,6.171623 1.542904,19.543477 -18.514875,78.173907 33.429633,66.344967 51.944505,-11.82895 81.259725,-19.54348 76.631005,-41.65847 -4.62872,-22.114985 -8.74314,-33.943932 -5.14302,-25.715099"
       id="path881" />
    <path
       style="fill:none;stroke:none;stroke-width:0.264583"
       d="m 78.272568,61.736109 c 6.015476,-1.503867 7.165509,-1.929222 14.882812,-2.756074 3.028693,-0.324504 8.22446,-0.764138 11.02431,1.102429 2.11081,1.40721 2.41584,4.954293 2.75607,7.1658 1.28972,8.383183 -0.73252,17.950344 -1.10243,26.458333 -0.0252,0.580012 -0.40834,8.690093 0,9.370653 2.09804,3.49674 7.23891,4.96094 11.02431,4.96094"
       id="path946" />
    <path
       id="path2525"
       style="opacity:1;fill:#000000;fill-opacity:1;fill-rule:evenodd;stroke:#000000;stroke-width:0.264583;stroke-opacity:1"
       d="m 14.718998,140.72061 -12.1677325,5.2e-4 v 122.07575 l 203.9177845,0.19585 0.39274,-122.2716 h -12.75736 c 0,0 7.85075,2.94408 6.08438,8.2429 -1.76608,5.29912 -6.08424,20.01913 -3.92534,26.49554 2.1589,6.47669 -5.88837,10.40212 -9.81335,7.85069 -3.92527,-2.55142 -7.06533,-6.47687 -8.24291,-4.12171 -1.17757,2.35487 -3.14021,3.33678 0,6.67297 2.02024,2.14651 4.19334,3.48682 5.33456,5.36867 0.14902,0.0861 0.3017,0.20665 0.4532,0.3669 0.054,0.0571 0.10775,0.11447 0.16175,0.17157 0.33252,0.35753 0.65399,0.72379 0.95239,1.11052 0.1314,0.17029 0.22547,0.33628 0.28784,0.49403 0.0287,0.022 0.0582,0.043 0.0868,0.0651 0.42752,0.33077 0.79968,0.72421 1.20406,1.08056 0.37551,0.32818 0.67329,0.72712 0.98185,1.11517 0.61418,0.79262 1.2517,1.56662 1.89239,2.33785 0.45684,0.56949 0.90846,1.14418 1.32654,1.74304 0.31033,0.4528 0.55029,0.94643 0.76119,1.45159 0.19578,0.43228 0.35067,0.88123 0.52038,1.32395 0.055,0.13447 0.10054,0.27074 0.14005,0.40825 0.27087,0.40799 0.47175,0.8527 0.6382,1.32705 0.25779,0.77194 0.40396,1.57078 0.5457,2.36988 0.12051,0.13652 0.24818,0.26712 0.38654,0.38809 0.78353,0.70904 1.69516,1.22336 2.64429,1.68258 1.38816,0.71773 2.77506,1.46293 3.97546,2.47634 0.50611,0.464 1.07049,0.92481 1.44333,1.51463 0.25282,0.39995 0.45856,0.83174 0.62528,1.27434 0.221,0.58696 0.15836,1.52758 0.19896,2.14819 -0.0727,1.39448 -0.30373,2.77115 -1.05679,3.97702 -0.61641,0.89044 -1.33596,1.6929 -2.30167,2.21537 -0.8986,0.45092 -1.85426,0.72118 -2.8484,0.87437 -1.03305,0.18165 -2.07056,0.3453 -3.11454,0.4501 -0.99935,0.0704 -2.01623,0.19998 -3.0086,0.001 -0.93606,-0.1912 -1.85382,-0.455 -2.75642,-0.76843 -1.2979,-0.46279 -2.60777,-0.94938 -3.33675,-2.20296 -0.23162,-0.55576 -0.38461,-1.12093 -0.33951,-1.72961 0.007,-0.34161 0.0184,-0.68341 0.0434,-1.02423 0.0447,-0.55154 0.10502,-1.10278 0.21911,-1.64486 0.13812,-0.57741 0.29546,-1.15076 0.46974,-1.71824 0.35928,-1.11061 0.72835,-2.22445 1.22318,-3.28301 0.47408,-0.91339 0.9995,-1.79256 1.59939,-2.62929 0.18814,-0.32816 0.38217,-0.65723 0.49764,-1.01958 0.0908,-0.22528 0.14323,-0.46467 0.17053,-0.70538 0.049,-0.31335 0.10214,-0.49151 0.0904,-0.58601 0.002,-0.28464 0.005,-0.56912 0.0124,-0.8537 -0.0922,-0.41524 -0.1353,-0.83968 -0.1664,-1.264 -0.0149,-0.20899 -0.0237,-0.42461 -0.006,-0.63821 -0.10072,-0.26976 -0.20339,-0.53857 -0.32246,-0.80098 -0.0896,-0.22851 -0.19682,-0.44934 -0.32815,-0.65681 -0.35171,-0.50443 -0.73395,-0.98637 -1.11672,-1.46761 -0.6605,-0.79518 -1.31782,-1.5932 -1.95131,-2.41019 -0.16825,-0.21253 -0.32015,-0.4384 -0.52038,-0.6227 -0.16966,-0.15565 -0.33666,-0.31433 -0.50539,-0.47077 -1.64541,1.80749 -4.84862,1.37144 -4.22558,7.6016 0.78477,7.85024 2.94373,10.20556 -1.7663,14.91589 -4.71032,4.71003 -7.8512,8.83172 -13.93507,4.51393 -6.08417,-4.31751 -7.85012,-8.63517 -16.28945,-5.88749 -1.7762,0.57836 -3.55498,0.89892 -5.23534,0.9958 -0.3462,0.25572 -0.78389,0.48111 -1.32085,0.65578 -0.53178,0.17306 -1.06215,0.35419 -1.57974,0.56689 -0.63359,0.34878 -1.19614,0.8048 -1.74357,1.27589 -0.57744,0.53182 -1.13482,1.08504 -1.61437,1.70894 -0.47754,0.54947 -0.98074,1.08089 -1.5875,1.49086 -0.52821,0.33578 -1.08626,0.60743 -1.70842,0.7152 -0.27808,0.0419 -0.54429,0.13724 -0.82114,0.18604 -0.36136,0.0584 -0.71882,0.14499 -1.08676,0.15399 -0.18916,-0.002 -0.37835,-0.003 -0.56689,-0.0202 -0.21652,-0.0195 -0.4324,-0.0448 -0.64595,-0.0863 -0.17331,-0.0316 -0.34656,-0.0641 -0.51832,-0.10335 -0.0745,-0.0171 -0.28849,-0.0202 -0.22169,-0.0574 0.003,-0.002 0.006,-0.002 0.0103,-0.003 -0.51181,-0.0583 -1.02426,-0.1297 -1.52239,-0.26355 -0.48245,-0.15256 -0.97061,-0.29184 -1.43609,-0.493 -0.75857,-0.33805 -1.4993,-0.71567 -2.19211,-1.17615 -0.93195,-0.63136 -1.7784,-1.37364 -2.56315,-2.18075 -0.6879,-0.7916 -1.30067,-1.63689 -1.54823,-2.67529 -0.17428,-0.71799 -0.29215,-1.44872 -0.27285,-2.19056 0.053,-0.80638 0.17502,-1.62171 0.54053,-2.35335 0.0457,-0.1 0.32893,-0.77225 0.37673,-0.82165 0.0101,-0.0103 -0.003,0.0282 -0.005,0.0424 -0.0372,0.31925 0.0487,-0.35407 0.0729,-0.39945 -0.003,-0.15625 -0.006,-0.31239 -0.0186,-0.46819 -0.0243,-0.31383 -0.0604,-0.62646 -0.11318,-0.9369 -0.003,-0.0188 -0.007,-0.0376 -0.0103,-0.0563 -0.3136,-0.21134 -0.62894,-0.49078 -0.93586,-0.86558 -0.005,-0.006 -0.011,-0.0136 -0.016,-0.0196 -0.16764,-0.17676 -0.38525,-0.42092 -0.56741,-0.63562 -0.40824,-0.44091 -0.85816,-0.84056 -1.30896,-1.23714 -0.54483,-0.46955 -1.10627,-0.92691 -1.72755,-1.29294 -0.45456,-0.29213 -0.92174,-0.56347 -1.38596,-0.83974 -0.24755,-0.14974 -0.4952,-0.30169 -0.77514,-0.38189 -0.54125,-0.13707 -1.07815,-0.29529 -1.6273,-0.39843 -0.34358,-0.0625 -0.69806,-0.0909 -1.04644,-0.10335 -0.38698,0 -0.77418,1e-5 -1.16117,0 -0.23692,0 -0.47363,6e-5 -0.71055,0 -0.22935,-8e-5 -0.45898,-2e-4 -0.68833,-5.2e-4 -0.41075,0 -0.82123,-0.001 -1.23197,-0.004 -0.48455,-0.004 -0.96928,-0.0107 -1.45366,-0.0248 -0.60087,-0.0211 -1.20156,-0.0526 -1.79885,-0.12454 -0.70651,-0.0814 -1.41333,-0.16742 -2.11305,-0.29559 -0.89692,-0.2052 -1.763194,-0.51245 -2.619482,-0.8475 -1.174286,-0.47667 -2.466419,-0.96487 -3.3507,-1.91668 -0.205399,-0.22111 -0.364297,-0.48163 -0.546219,-0.72243 -0.0969,-0.21546 -0.215512,-0.42241 -0.290422,-0.64647 -0.3633,-1.08671 -0.217556,-2.22241 0.322978,-3.21996 0.582368,-0.89203 1.316176,-1.63761 2.181262,-2.2624 0.733406,-0.54235 1.465673,-1.10473 2.295467,-1.49396 0.376249,-0.19246 0.757726,-0.38172 1.150836,-0.5364 0.532,-0.2399 1.00612,-0.58994 1.50017,-0.89607 0.64074,-0.42806 1.21472,-0.92723 1.63969,-1.57924 0.62038,-0.88467 1.13164,-1.83481 1.66656,-2.77244 0.51546,-0.90511 1.0494,-1.80032 1.73788,-2.58795 0.61579,-0.67707 1.25852,-1.34731 2.09186,-1.75648 0.59595,-0.26583 1.21202,-0.47365 1.87172,-0.49145 0.20257,-0.001 0.40519,0.001 0.60772,-0.006 0.12069,-0.003 0.24119,-0.008 0.36173,-0.0129 0.0136,-0.002 0.0989,-0.0265 0.0842,-0.009 0.13321,-0.33655 0.25563,-0.67569 0.36948,-1.02009 0.20136,-0.56416 0.36669,-1.14205 0.51418,-1.72238 0.15835,-0.60752 0.31635,-1.21324 0.34055,-1.84485 0.0453,-0.89217 0.098,-1.78491 0.0512,-2.67839 -0.0269,-0.96155 -0.0535,-1.92509 -0.17415,-2.88044 -0.0984,-0.65216 -0.25673,-1.28976 -0.53898,-1.88981 -0.18676,-0.39407 -0.34119,-0.80362 -0.64234,-1.12551 -0.34507,-0.3676 -0.71356,-0.7154 -1.11415,-1.02216 -0.8237,-0.63073 -1.29593,-1.31379 -1.48828,-1.94355 -0.76916,-0.15913 -1.53293,-0.33898 -2.26084,-0.64337 -0.76026,-0.33387 -1.46802,-0.75596 -2.08515,-1.31775 -0.5325,-0.46551 -1.029,-0.96759 -1.46089,-1.52963 -0.32666,-0.42322 -0.71456,-0.79365 -1.0728,-1.18959 -0.25457,-0.27022 -0.5448,-0.49898 -0.85628,-0.70228 -0.61486,-0.3795 -1.22775,-0.77198 -1.899108,-1.04593 -0.648727,-0.29235 -1.287982,-0.61027 -1.961121,-0.84491 -0.327307,-0.11325 -0.65422,-0.2013 -1.000455,-0.2403 -0.640566,-0.0638 -1.280448,-0.14763 -1.923914,-0.17363 -0.456956,-0.0228 -0.908815,-0.0333 -1.364774,0.0274 -0.517322,0.0368 -1.026166,0.013 -1.53324,-0.0992 -0.407917,-0.0784 -0.811895,-0.17477 -1.207162,-0.29869 0.89498,1.85653 2.356862,3.56642 4.668966,5.66839 4.31768,3.92523 7.458048,8.63551 2.944006,12.16825 -4.513918,3.53245 -13.93436,22.96285 -10.009208,27.08413 2.398298,2.51828 7.501104,5.62179 8.964311,8.23774 0.864739,0.11928 1.720847,0.32597 2.568835,0.51987 0.959204,0.23013 1.930894,0.40132 2.896464,0.60151 0.6035,0.13226 1.21483,0.21925 1.82935,0.27905 0.48796,0.0596 0.97504,0.0165 1.45779,-0.0625 0.64815,-0.0936 1.27438,-0.28656 1.90686,-0.44907 0.68549,-0.18558 1.37498,-0.35772 2.06499,-0.52555 0.65955,-0.15745 1.32065,-0.30558 1.98024,-0.46302 0.49052,-0.14827 1.01009,-0.17123 1.50585,-0.28887 0.15588,-0.0387 0.15861,-0.0852 0.35553,-0.21136 0.19924,-0.1243 0.39595,-0.2515 0.58291,-0.39326 0.0699,-0.0538 0.0362,-0.0274 0.0997,-0.077 0.80386,-0.62772 1.56575,-0.89544 2.20555,-0.90433 1.91941,-0.0266 2.74345,2.27402 0.32918,4.15427 -0.0964,0.0751 -0.0456,0.0352 -0.154,0.11833 -0.27136,0.20394 -0.55186,0.394 -0.84026,0.5731 -0.54941,0.35197 -1.12221,0.66993 -1.77456,0.78289 -0.45095,0.0849 -0.90721,0.14313 -1.35289,0.2558 -0.65461,0.15624 -1.31144,0.30214 -1.96577,0.45941 -0.67412,0.16309 -1.34678,0.33242 -2.01642,0.51314 -0.76511,0.19389 -1.52273,0.423 -2.30735,0.5302 -0.82257,0.1197 -1.65299,0.18802 -2.48254,0.0899 -0.75924,-0.0758 -1.51536,-0.18275 -2.26136,-0.3452 -0.99331,-0.20597 -1.992553,-0.38159 -2.979144,-0.61908 -0.919692,-0.21087 -1.842716,-0.41802 -2.779675,-0.53537 -0.385901,-0.0483 -0.738778,-0.12442 -1.058334,-0.22169 -0.329415,0.12011 -0.681157,0.23722 -1.083655,0.34623 -5.509563,1.49222 -12.417437,3.91065 -17.841288,4.61264 -0.357123,0.75649 -1.324192,1.37356 -2.902665,1.37356 H 71.126408 68.93171 67.369531 66.141182 c -0.699809,0.0122 -1.397478,-0.0528 -2.095479,-0.0941 -0.698079,-0.0225 -1.392521,-0.0762 -2.085661,-0.16072 -0.468913,-0.0602 -0.939364,-0.10054 -1.408182,-0.16174 -0.60314,-0.0607 -1.204542,-0.13621 -1.806609,-0.20671 -0.602066,-0.0686 -1.207835,-0.0898 -1.810225,-0.15296 -0.926007,-0.10999 -1.854685,-0.18361 -2.78536,-0.24081 -0.82805,-0.0505 -1.65701,-0.0802 -2.486153,-0.10129 -0.331778,0.01 -0.663654,0.0211 -0.995288,0.0362 -0.967764,0.0489 -1.93309,0.13065 -2.89233,0.2713 -0.891275,0.10104 -1.787115,0.1712 -2.684074,0.16537 -0.437193,0.22938 -0.989766,0.39783 -1.682068,0.45579 -0.78426,0.0657 -1.578393,0.076 -2.347143,0.25734 -0.430247,0.16718 -0.737899,0.50882 -1.031978,0.84956 -0.23151,0.28154 -0.357587,0.62634 -0.490927,0.9617 -0.08218,0.27496 -0.176601,0.55588 -0.181901,0.84491 -0.05156,0.6541 0.04857,1.30521 0.137976,1.9513 0.02576,0.17079 0.05995,0.33864 0.100253,0.50437 0.04364,0.1263 0.0863,0.25279 0.132291,0.37827 0.07421,0.20677 0.142738,0.41537 0.211874,0.62373 0.296187,0.71965 0.681226,1.4048 1.089856,2.07016 0.567233,0.84891 1.173507,1.68855 1.94045,2.37143 0.355258,0.31633 0.614016,0.47051 1.010274,0.73794 0.783127,0.46846 1.600612,0.87036 2.456181,1.17874 0.582994,-0.0624 1.165487,-0.13116 1.750797,-0.16691 0.884537,-0.0636 1.767864,-0.14841 2.654102,-0.18501 0.134801,-0.008 0.269726,-0.0156 0.404626,-0.0238 0.573267,-0.24611 1.132514,-0.52382 1.685169,-0.81287 0.511251,-0.27872 1.020166,-0.55994 1.502234,-0.88728 0.381821,-0.26012 0.774519,-0.50348 1.159619,-0.75861 0.527417,-0.33696 1.112776,-0.5672 1.707906,-0.75241 0.477555,-0.13186 0.95434,-0.26038 1.441772,-0.35088 0.317243,-0.0871 0.6365,-0.16411 0.959115,-0.22841 0.223063,-0.0382 0.501242,-0.12712 0.810803,-0.18862 0.4544,-0.0894 0.917279,-0.10481 1.378727,-0.11731 0.632733,-0.0118 1.265276,-0.0246 1.897559,0.002 0.693095,0.0342 1.381739,0.10581 2.067057,0.21342 0.31245,0.0513 0.625041,0.0992 0.941028,0.12093 0.4841,0.024 0.969097,0.0249 1.453658,0.0279 0.745418,0.004 1.490612,0.005 2.236039,0.006 0.703402,-0.0186 1.4047,-0.083 2.108916,-0.10955 1.208721,-0.001 2.406636,-0.15092 3.603914,-0.29766 1.042683,-0.15723 2.069366,-0.39779 3.102653,-0.60461 0.66956,-0.16246 1.338659,-0.32434 2.009696,-0.48059 1.108388,-0.27283 2.245837,-0.38793 3.376539,-0.52555 1.445812,-0.20172 2.899489,-0.23231 4.356323,-0.20671 3.038205,0.0859 6.06991,0.2744 9.096085,0.55346 2.808064,0.27755 5.601494,0.68032 8.390704,1.10329 1.98985,0.29189 3.97109,0.63819 5.94744,1.00976 2.27587,0.45724 4.56027,0.86983 6.84403,1.28519 1.84833,0.3479 3.70578,0.64945 5.57433,0.8661 1.37084,0.15814 2.74834,0.23687 4.12688,0.28267 1.52695,0.0441 3.05468,0.0509 4.58215,0.0579 2.34947,0.003 4.69877,-0.06 7.04763,-0.1018 1.51412,0.006 3.02129,-0.0522 4.52893,-0.18293 2.31633,-0.16944 4.63634,-0.28197 6.95358,-0.44184 2.06344,-0.15549 4.12516,-0.33131 6.19187,-0.44235 1.6483,-0.1059 3.29742,-0.12097 4.94802,-0.0899 1.07982,0.0266 2.15991,0.051 3.24011,0.0682 0.87885,0.0149 1.7581,0.0166 2.63705,0.0196 0.81101,0.0101 1.62071,-0.0558 2.42982,-0.10387 0.52098,-0.0521 1.04878,-0.0237 1.5689,-0.0796 0.50029,-0.0496 1.00032,-0.0912 1.49706,-0.16691 0.37565,-0.0451 0.73947,-0.1538 1.10691,-0.2403 0.0582,-0.006 0.31266,-0.11278 0.57775,-0.19378 -0.60731,0.19171 0.47179,-0.20178 0.51469,-0.21498 0.43101,-0.11858 0.88072,-0.13763 1.32499,-0.15503 0.2969,-0.0106 0.59384,-0.0135 0.8909,-0.0155 0.50336,0.0271 1.00424,0.0969 1.49758,0.19844 0.54719,0.14421 1.03419,0.41684 1.48932,0.74517 0.33255,0.24006 0.61698,0.53449 0.88935,0.83871 0.21644,0.26119 0.41858,0.5319 0.59273,0.82321 0.17243,0.28821 0.29217,0.60158 0.37207,0.92707 0.31271,1.38253 -0.39523,1.90029 -1.32912,2.49494 -0.24103,0.15346 -0.64041,0.19276 -0.91932,0.25166 -0.0904,0.0215 -0.18249,0.0324 -0.27389,0.0476 -0.42794,0.96463 -0.82719,1.94233 -1.26917,2.9006 -0.86781,1.55145 -1.99587,2.1053 -3.63854,2.5771 -1.22978,0.2795 -2.48416,0.41059 -3.7176,0.67386 -1.60451,0.36894 -3.16138,0.89516 -4.67775,1.53117 -0.58957,0.2414 -1.16149,0.51696 -1.72755,0.8046 1.85304,0.20741 3.72553,0.23412 5.59036,0.22325 4.11521,-0.0769 8.22175,-0.38412 12.32276,-0.71521 2.61663,-0.22152 5.22392,-0.53857 7.81813,-0.94361 1.41291,-0.21358 2.8166,-0.51553 4.24935,-0.53433 1.10406,0.0617 2.07003,0.53418 2.69131,1.46348 0.0924,0.13817 0.14874,0.2974 0.22324,0.44596 0.22272,0.54929 0.24728,1.13584 0.25528,1.71928 0.0265,0.5581 -0.0223,1.10928 -0.11937,1.65829 -0.0867,0.4867 -0.22378,0.96169 -0.33951,1.44178 -0.0631,0.355 -0.13009,0.70839 -0.20929,1.0604 -0.0567,0.31963 -0.1243,0.6352 -0.22583,0.94413 -0.0302,0.11841 -0.0444,0.24019 -0.0605,0.36121 -0.002,0.0158 -0.002,0.0317 -0.003,0.0476 0.18488,0.32271 0.36005,0.65171 0.53692,0.97926 0.21846,0.40405 0.37743,0.83193 0.48886,1.27641 0.1135,0.4227 0.0951,0.82773 0.0718,1.26297 -0.11154,0.75946 -0.60155,1.29391 -1.16841,1.75545 -0.65681,0.50199 -1.45974,0.66349 -2.24017,0.86713 -0.87393,0.23842 -1.7761,0.31441 -2.67219,0.41755 -1.03971,0.12874 -2.08616,0.18923 -3.13056,0.26613 -1.31219,0.10074 -2.62812,0.1446 -3.94342,0.1788 -1.32014,0.0669 -2.64054,0.1252 -3.96152,0.1726 -1.04926,0.0397 -2.09927,0.0541 -3.14916,0.0631 -1.47822,0.0269 -2.95555,-0.0347 -4.43281,-0.0791 -1.26974,-0.0377 -2.54027,-0.0626 -3.81062,-0.0796 -0.85713,-0.0153 -1.71482,-0.003 -2.57142,-0.0382 -1.00799,-0.068 -2.01716,-0.10509 -3.0272,-0.12919 -1.46436,-0.0777 -2.92905,-0.13828 -4.39508,-0.17208 -2.47733,-0.0705 -4.95549,-0.0782 -7.43366,-0.0822 -2.68425,-0.0188 -5.36743,-0.1038 -8.05015,-0.1943 -1.9694,-0.0694 -3.93945,-0.11415 -5.90972,-0.14935 -1.32907,-0.0245 -2.65809,-0.0301 -3.98735,-0.0351 -1.69725,-0.005 -3.39494,-0.005 -5.0922,-0.006 -1.82519,-6.7e-4 -3.6501,-5.1e-4 -5.47511,-5.1e-4 -1.22143,-0.004 -2.44326,0.0123 -3.66438,-0.0181 -1.09797,-0.0471 -2.19591,-0.0934 -3.29437,-0.12764 -0.82092,0.004 -1.62645,-0.04 -2.42673,-0.22841 -0.74379,-0.1712 -1.41592,-0.5105 -2.06602,-0.89917 -0.51765,-0.31621 -1.0246,-0.64767 -1.53169,-0.9803 -0.45149,-0.3001 -0.84059,-0.66912 -1.19269,-1.07849 -0.3326,-0.40032 -0.56237,-0.86096 -0.74156,-1.34617 -0.0899,-0.27046 -0.20032,-0.55132 -0.28112,-0.84595 -0.0519,-0.30787 -0.11262,-0.5024 -0.18862,-0.79995 -0.0966,-0.34697 -0.1339,-0.70553 -0.1602,-1.0635 0.0582,0.46753 -0.11282,-0.38303 -0.12402,-0.44183 -0.0162,-0.18735 -0.096,-0.39184 -0.20516,-0.68316 -0.13355,-0.40143 -0.2922,-0.79326 -0.44493,-1.18753 -0.1605,-0.36673 -0.3779,-0.70298 -0.6134,-1.02526 -0.25351,-0.30314 -0.48789,-0.63253 -0.76584,-0.91467 -0.0921,-0.0935 -0.21082,-0.15606 -0.31471,-0.23616 -0.54443,-0.39866 -1.10107,-0.79035 -1.72289,-1.05834 -0.55224,-0.24566 -1.14338,-0.34673 -1.7322,-0.4594 -0.74532,-0.13438 -1.50012,-0.2046 -2.25464,-0.262 -0.65246,-0.0366 -1.30711,-0.077 -1.960606,-0.0522 -0.853745,0.006 -1.694227,0.1448 -2.531628,0.29714 -0.965136,0.16141 -1.862858,0.51155 -2.75177,0.9064 -1.20264,0.56609 -2.390585,1.16285 -3.595129,1.72496 -1.134254,0.50128 -2.271045,0.99594 -3.400826,1.5074 -1.038166,0.48164 -2.098971,0.91156 -3.143994,1.3777 -0.768248,0.35285 -1.572841,0.6121 -2.388485,0.82889 -0.590923,0.18164 -1.190725,0.32556 -1.79989,0.42943 -0.664114,0.10835 -1.338595,0.11814 -2.009697,0.13384 -0.62041,0.0144 -1.240828,0.0182 -1.861385,0.0212 -0.572131,0.004 -1.14404,0.009 -1.715657,-0.0155 -0.804029,-0.0696 -1.603232,-0.18001 -2.405538,-0.26561 -0.479572,-0.0428 -0.960703,-0.0678 -1.441773,-0.0858 -0.314591,-0.0119 -0.629345,-0.0156 -0.944128,-0.0186 -0.305812,-0.002 -0.611956,-0.002 -0.917774,-0.003 -0.562873,-0.003 -1.121372,-0.10178 -1.669148,-0.22325 -0.674583,-0.17044 -1.330376,-0.41936 -1.88619,-0.85007 -0.442263,-0.34271 -0.617225,-0.57543 -0.976168,-0.98134 -0.652126,-0.79849 -1.15308,-1.70503 -1.607654,-2.62619 -0.08883,-0.1144 -0.215176,-0.64467 -0.423747,-0.59997 -0.382257,-0.10233 -0.745026,-0.38003 -1.145149,-0.41083 -0.01832,-0.001 -0.06887,-0.0154 -0.05478,-0.002 0.02557,0.0213 0.1232,0.0249 0.0925,0.0377 -0.246277,0.10303 -0.570876,0.12857 -0.828373,0.18087 -0.575726,0.14158 -1.156292,0.25999 -1.73116,0.40463 -0.577268,0.2449 -1.142574,0.51485 -1.703772,0.79426 -0.851766,0.43181 -1.686389,0.89483 -2.547648,1.30793 -0.965516,0.45237 -2.003814,0.73033 -3.032373,0.99942 -0.924826,0.23561 -1.865302,0.40195 -2.805514,0.56224 -1.287863,0.24485 -2.585867,0.43454 -3.885551,0.6041 -1.553876,0.18393 -3.090841,0.48393 -4.624007,0.79168 -1.457901,0.29736 -2.929324,0.52165 -4.406449,0.69712 -1.308052,0.16869 -2.61604,0.22789 -3.931027,0.13539 -1.643122,-0.17735 -3.215916,-0.7128 -4.780586,-1.21853 -0.851485,-0.31629 -1.740043,-0.5774 -2.556433,-0.98288 -0.771454,-0.38315 -0.941489,-0.52247 -1.665015,-0.99064 -1.11067,-0.72393 -2.094837,-1.59971 -3.020488,-2.53783 -0.597264,-0.44902 -1.15439,-0.94507 -1.659847,-1.49707 -0.551268,-0.62782 -0.978776,-1.33802 -1.322399,-2.09599 -0.01484,-0.0344 -0.02786,-0.0692 -0.04186,-0.10387 -0.153639,-0.20735 -0.304684,-0.41685 -0.461471,-0.62167 -0.70158,-0.87323 -1.408471,-1.74302 -2.120801,-2.60759 -0.448734,-0.53651 -0.867043,-1.08661 -1.196826,-1.70481 -0.308552,-0.54817 -0.418612,-1.13231 -0.465604,-1.7508 0.01855,-0.52665 0.05292,-1.05292 0.127124,-1.57458 0.09424,-0.55061 0.307261,-1.06228 0.60358,-1.53324 0.188908,-0.28676 0.412469,-0.55129 0.637687,-0.81028 0.247985,-0.2992 0.53482,-0.56066 0.80822,-0.83509 0.389807,-0.40073 0.892722,-0.64593 1.35754,-0.94103 0.261412,-0.1123 0.342872,-0.23164 0.506429,-0.39481 0.106615,-0.0887 0.291951,-0.33501 0.343131,-0.40721 -0.07088,0.0728 0.111586,-0.41013 0.134876,-0.49093 0.05675,-0.22695 0.06863,-0.4623 0.08062,-0.69504 0.0139,-0.54776 0.02744,-1.09295 0.08527,-1.63815 0.04093,-0.51587 0.138021,-1.02397 0.241846,-1.53014 0.06289,-0.32664 0.132536,-0.64942 0.241846,-0.96428 0.08517,-0.22617 0.180184,-0.49692 0.330729,-0.75809 0.194253,-0.38706 0.498576,-0.69303 0.839742,-0.95343 0.528617,-0.36408 1.149647,-0.39546 1.7663,-0.41186 0.418364,-0.008 0.836778,-0.0114 1.255221,-0.0134 0.400772,-0.004 0.800716,0.0154 1.198893,-0.031 0.114922,-0.0227 0.234032,-0.0216 0.348816,-0.045 0.01021,-0.002 -0.03277,0.002 -0.02997,-0.008 0.0045,-0.0161 0.02529,-0.0215 0.04031,-0.0295 0.07399,-0.0371 0.150646,-0.0693 0.225826,-0.10387 0.09227,-0.0464 0.184716,-0.0931 0.276986,-0.13952 0.436915,-0.21469 0.851128,-0.46714 1.248502,-0.74621 0.249248,-0.26466 0.468481,-0.55842 0.695565,-0.84284 0.40767,-0.48535 0.844073,-0.94713 1.310515,-1.37615 0.729602,-0.60147 1.597995,-0.98694 2.471167,-1.32911 0.664736,-0.24442 1.349263,-0.42899 2.042252,-0.57206 0.398174,-0.12334 0.814486,-0.18566 1.213363,-0.30386 0.5106,-0.13877 1.014096,-0.29657 1.530139,-0.41651 0.75345,-0.15318 1.512667,-0.27166 2.274796,-0.37156 0.48342,-0.0617 0.968583,-0.1071 1.455209,-0.1328 0.273478,0.0134 0.447161,-0.0312 0.706933,-0.0806 0.05787,-0.01 0.115763,-0.0209 0.173633,-0.0294 0.251337,-0.0431 0.489701,-0.0678 0.714685,-0.0755 0.629717,-0.0217 1.149482,0.091 1.562179,0.2868 0.587133,-0.0523 1.173954,-0.10891 1.762683,-0.14108 1.239336,-0.0549 2.480878,-0.0499 3.72122,-0.0589 1.372485,0.0207 2.74333,0.10981 4.116544,0.10181 0.366993,0.006 0.733798,0.0148 1.100708,0.0238 0.693742,-0.0194 1.387586,-0.031 2.081527,-0.0398 0.894089,0.0126 1.781897,-0.10109 2.670121,-0.18449 0.99849,-0.086 1.993476,-0.20237 2.992583,-0.28267 0.630681,-0.0731 1.270738,-0.0497 1.901176,-0.11885 0.484852,-0.25433 1.124566,-0.41376 1.921329,-0.416 0.578227,-0.001 1.156634,-4.9e-4 1.734778,-0.0114 0.269012,-0.006 0.537359,-0.026 0.805119,-0.0527 0.428987,-0.0439 0.857807,-0.091 1.284676,-0.15193 0.295216,-1.63807 1.747683,-2.00765 -5.231205,-7.73027 -4.970647,-4.07598 -9.185141,-3.36923 -13.129948,-2.44482 -0.355526,0.48798 -0.940332,0.94538 -1.787488,1.2852 -1.020141,0.40922 -2.071866,0.73462 -3.119189,1.06608 -1.012023,0.3275 -2.031143,0.6346 -3.060279,0.90382 -0.791123,0.19781 -1.58921,0.35624 -2.395719,0.47543 -0.506326,0.0644 -1.005349,0.17248 -1.510502,0.24598 -0.44064,0.0574 -0.877018,0.14626 -1.313615,0.22996 -0.662231,0.10982 -1.324212,0.21964 -1.989543,0.30954 -0.551973,0.10546 -1.107151,0.19308 -1.664498,0.26458 -0.374383,0.0394 -0.742411,0.12439 -1.114144,0.18449 -0.340162,0.0559 -0.683975,0.0842 -1.027844,0.1049 -1.099961,0.0663 -1.919983,-0.18746 -2.45153,-0.59686 -0.441137,-0.0514 -0.880674,-0.11767 -1.316198,-0.21394 -1.169159,-0.28486 -2.319788,-0.64963 -3.442168,-1.08366 -1.221478,-0.48819 -2.419442,-1.03623 -3.514514,-1.77302 -0.981162,-0.68605 -1.935734,-1.40967 -2.828768,-2.20865 -1.270047,-1.18037 -2.543216,-2.41481 -3.451469,-3.90312 -0.126321,-0.25096 -0.266438,-0.49541 -0.378788,-0.75293 -0.367919,-0.84321 -0.479411,-1.79374 -0.447001,-2.70422 0.05795,-1.17822 0.227833,-2.34352 0.578776,-3.47369 0.20337,-0.59504 0.250551,-0.79024 0.519348,-1.35186 0.428208,-0.89467 1.012541,-1.69609 1.651579,-2.45101 0.4934,-0.53599 0.643015,-0.72225 1.193726,-1.21905 0.763399,-0.68868 1.612473,-1.27909 2.441194,-1.88412 0.783517,-0.54002 1.554129,-1.10437 2.384868,-1.57096 0.554211,-0.33044 1.120782,-0.63795 1.676383,-0.96584 0.492686,-0.26876 0.989221,-0.53056 1.475879,-0.81028 0.484953,-0.28369 0.973398,-0.56197 1.449524,-0.86042 0.756219,-0.47402 1.455129,-0.68205 2.050004,-0.69453 2.124586,-0.0446 2.919661,2.40351 0.236161,4.12378 -0.540747,0.34665 -1.10003,0.66408 -1.654162,0.98857 -0.522125,0.30074 -1.054588,0.58266 -1.583366,0.87127 -0.508399,0.30292 -1.029473,0.58185 -1.537374,0.88573 -0.75311,0.42197 -1.449226,0.93703 -2.159041,1.42627 -0.722275,0.53103 -1.467699,1.04309 -2.131653,1.64848 -0.301215,0.27457 -0.525859,0.53839 -0.798918,0.84077 -0.643852,0.74157 -1.010313,1.39801 -1.302763,2.32338 -0.230437,0.77292 -0.33816,1.56463 -0.37362,2.36729 -0.02445,0.4482 0.0564,0.92907 0.330212,1.29502 0.07968,0.12231 0.151132,0.25087 0.239262,0.36741 0.164493,0.2175 0.664285,0.75944 0.821655,0.92656 0.505405,0.53671 1.026637,1.05329 1.568897,1.55236 0.756024,0.67045 1.562971,1.27755 2.390551,1.8557 0.837092,0.5482 1.748106,0.9552 2.675806,1.32137 0.942125,0.35859 1.904325,0.67321 2.885612,0.9064 0.754903,0.15664 1.521658,0.21495 2.290816,0.21395 0.939005,-0.0472 1.853627,-0.23653 2.754871,-0.49403 0.936681,-0.27154 1.822209,-0.68211 2.703194,-1.09399 0.49402,-0.23823 0.97922,-0.49326 1.46451,-0.74828 -7.362657,-4.97172 -15.514888,-5.65937 -9.233545,-11.38638 6.672781,-6.08416 12.953003,-6.08426 4.513937,-11.97188 -8.439095,-5.8877 -15.504902,7.45799 -18.056263,3.92534 -2.551343,-3.53274 -5.299131,-18.05628 -1.177705,-19.0376 4.121392,-0.98132 12.36437,-7.06546 9.224243,-11.18691 -3.140128,-4.12153 -14.9158221,-8.63548 -11.186914,-10.20558 3.728889,-1.57011 4.513936,-3.72897 4.513936,-3.72897 z m 85.375152,8.63565 c -6.28028,0 -10.794066,2.7e-4 -10.597804,4.7103 3.02e-4,0.007 0.001,0.0139 0.001,0.0212 0.253741,0.15734 0.512497,0.35101 0.773079,0.58705 0.372841,0.33773 0.810233,0.60353 1.262455,0.82114 0.366655,0.17345 0.760053,0.26611 1.156519,0.33951 0.105955,0.0166 0.211624,0.0354 0.31781,0.0512 v -5.2e-4 c 0.0055,-0.0454 0.09093,-0.008 0.136426,-0.0119 0.626291,-0.0708 1.252827,-0.0647 1.881022,-0.0336 0.711688,0.0277 1.419196,0.11822 2.127518,0.18862 0.658776,0.0723 1.296415,0.22903 1.922881,0.4408 0.797447,0.26818 1.55119,0.64384 2.31769,0.98598 0.83602,0.3473 1.60848,0.82453 2.3766,1.29863 0.60822,0.38312 1.1612,0.83785 1.66139,1.35237 0.45779,0.48363 0.91488,0.96646 1.33222,1.4857 0.27489,0.35535 0.57976,0.68063 0.92346,0.96945 0.29966,0.26242 0.61834,0.50445 0.99477,0.6413 0.57363,0.23537 1.17897,0.35146 1.78439,0.47078 1.27762,0.24582 2.56091,0.46028 3.84783,0.65112 0.0471,0.007 0.0854,0.0205 0.13125,0.0284 0.23803,-0.002 0.49142,0.0126 0.7612,0.0491 0.73973,0.10006 1.48233,0.17804 2.22519,0.25064 0.44828,0.0477 0.90142,-0.003 1.35082,-0.0238 0.46752,-0.0137 0.93492,-0.0539 1.39629,-0.13229 0.69241,-0.0987 1.38016,-0.22701 2.06913,-0.34726 0.71981,-0.096 1.43236,-0.22485 2.14199,-0.37724 0.66461,-0.18712 1.33774,-0.32518 2.02158,-0.41858 0.26645,-0.0308 0.53113,-0.0441 0.79478,-0.0419 0.58004,0.005 1.15445,0.0858 1.72444,0.22531 1.08822,0.3053 2.03556,0.91241 2.96055,1.54099 0.75656,0.5209 1.44427,1.11981 2.00763,1.84537 0.71528,1.13378 0.67881,2.34721 -0.21963,3.37344 -0.11776,0.13451 -0.26033,0.24455 -0.39067,0.3669 -0.83799,0.62547 -1.84002,0.87647 -2.84892,1.06763 -1.01912,0.16194 -2.04405,0.274 -3.07268,0.3483 -1.03951,0.0417 -2.08012,0.005 -3.11971,-0.016 -1.28602,-0.0437 -2.5491,-0.31445 -3.80855,-0.55759 -0.92774,-0.1684 -1.85692,-0.3224 -2.75746,-0.60616 -0.43357,-0.15331 -0.858,-0.33858 -1.21491,-0.58136 0.35947,0.8516 0.57998,1.74787 0.72915,2.6603 0.1051,0.76363 0.14937,1.5329 0.18087,2.3027 0.42543,0.62328 0.67621,1.58455 0.56327,2.82515 -0.055,0.60399 -0.14736,1.20779 -0.15916,1.81591 -0.005,0.53653 0.0191,1.07771 0.12144,1.60559 0.15129,0.35294 0.24035,0.74081 0.42788,1.07797 0.0871,0.22355 0.20826,0.41095 0.35502,0.58498 0.2242,0.2168 0.46563,0.40801 0.72192,0.58446 0.35159,0.18562 0.71094,0.35935 1.07177,0.5271 0.52619,0.23314 1.03432,0.50169 1.54047,0.77463 0.46746,0.24265 0.92141,0.50448 1.35496,0.80357 0.50006,0.35642 0.97092,0.74585 1.40405,1.1808 0.49604,0.58421 0.96229,1.19287 1.4335,1.79731 0.52503,0.68408 1.03912,1.37505 1.48518,2.11357 0.37434,0.61653 0.66217,1.27207 0.86765,1.96215 0.14766,0.53385 0.20324,1.085 0.24184,1.63556 0.042,0.52853 -0.044,1.05473 -0.0816,1.58078 -0.0715,0.81995 -0.19501,1.62782 -0.39016,2.42724 -0.30009,1.15498 -0.8836,2.19899 -1.47743,3.22358 -0.36186,0.60284 -0.69244,1.22274 -0.9803,1.86397 -0.26747,0.60041 -0.54176,1.19691 -0.83716,1.78439 -0.26219,0.55873 -0.46797,1.14227 -0.68781,1.71875 -0.16482,0.4221 -0.28298,0.85876 -0.41393,1.29191 -0.0738,0.21975 -0.12212,0.44581 -0.16072,0.67387 -0.0112,0.0978 -0.0209,0.19593 -0.0289,0.29403 0.001,0.0383 -0.001,0.14093 -0.002,0.20103 -5.3e-4,0.0508 -0.001,0.0268 -0.001,0.0729 -0.001,0.11078 -0.0112,0.21207 -0.0181,0.31678 0.0793,0.35762 0.14558,0.71835 0.20877,1.079 0.0753,0.43823 0.12696,0.87982 0.16226,1.32292 0.0234,0.28535 0.0286,0.57191 0.0336,0.85782 -0.0177,0.46403 -0.10692,0.92132 -0.20825,1.37305 -0.14704,0.50124 -0.39265,0.96387 -0.60462,1.43867 -0.15337,0.26433 -0.16768,0.57521 -0.18138,0.89504 0.0264,0.31822 0.0682,0.63202 0.15451,0.93999 0.10058,0.38321 0.36213,0.66074 0.62839,0.94258 0.56134,0.52692 1.11385,1.07522 1.7663,1.48983 0.50062,0.33214 1.03757,0.59993 1.58595,0.84233 0.3242,0.12132 0.65588,0.22564 0.98753,0.32504 0.27295,0.038 0.54537,0.0814 0.81959,0.11059 0.31778,0.0516 0.62602,0.13885 0.94258,0.19585 0.0914,0.0205 0.18399,0.0287 0.27699,0.0367 0.0172,9.4e-4 0.0476,0.001 0.0703,0.001 0.10054,-0.0271 0.49289,-0.0874 0.55914,-0.0982 -0.0145,10e-4 -0.0577,0.008 -0.0439,0.003 0.26253,-0.0893 0.54905,-0.13362 0.82114,-0.18242 -0.0109,2.7e-4 -0.0422,0.005 -0.032,0.001 0.21358,-0.0745 0.0489,-6.6e-4 0.18707,-0.10387 0.27752,-0.21039 0.50256,-0.47923 0.72967,-0.74208 0.57576,-0.74039 1.24367,-1.3979 1.9296,-2.0345 0.26795,-0.23962 0.54303,-0.47033 0.82475,-0.69195 -2.39856,-1.37858 -3.4355,-3.87438 -1.88515,-7.43107 3.33618,-7.65399 9.42059,-14.52344 7.06572,-19.82256 -2.35516,-5.29882 -6.47669,-12.16832 0,-16.09359 6.4764,-3.92527 11.18709,-8.63579 9.61698,-10.79469 -1.5701,-2.15889 -4.90723,-4.51422 -8.24342,-3.14038 -3.33647,1.37385 -3.33677,-7.26134 -11.38329,-5.88749 -8.04651,1.37384 -19.03721,4.90601 -20.21479,1.37356 -1.17729,-3.53274 -3.92595,-6.86935 -10.20609,-6.86935 z m 11.92899,34.41547 c -0.005,0.004 -0.0209,0.0101 -0.0543,0.0217 0.0117,-0.005 0.0379,-0.0138 0.0532,-0.0196 2.9e-4,-7.2e-4 0.001,-0.001 0.001,-0.002 z m 4.10827,9.44748 c -0.1034,-9.3e-4 -0.20665,0.001 -0.31057,0.007 -0.43656,0.003 -0.87312,0.007 -1.30948,0.0217 -0.46365,0.0155 -0.92848,0.0378 -1.39062,0.0651 -0.14648,-0.0354 -0.32466,0.18331 -0.47387,0.21291 -0.26373,0.13446 -0.51264,0.294 -0.75499,0.46354 -0.001,0.0169 -0.002,0.0352 -0.003,0.0522 -0.0551,0.67806 -0.12581,1.36029 -0.33693,2.01073 -0.0641,0.19234 -0.1359,0.36895 -0.1478,0.57154 -0.028,-0.20927 0.0113,0.37212 0.0258,0.54881 0.23285,0.026 0.46688,0.037 0.70383,0.046 0.60561,0.0392 1.21091,0.0852 1.81643,0.12557 0.6511,1e-4 1.30175,2.1e-4 1.95285,5.2e-4 0.53695,0 1.07446,0.003 1.61127,-0.0103 0.27753,-0.0122 0.47657,-0.002 0.73174,-0.13332 0.16359,-0.0485 0.31769,-0.1176 0.447,-0.23203 0.0592,-0.0591 0.10079,-0.14523 0.17829,-0.17673 0.0149,-0.006 -0.0301,0.0561 -0.0196,0.0439 0.0276,-0.0321 0.0771,-0.12148 0.093,-0.14056 0.0175,-0.0786 0.0315,-0.14944 0.0403,-0.20825 v -5.2e-4 c -0.007,-0.0108 -0.007,-0.0382 -0.006,-0.062 -0.002,0.004 -0.003,0.006 -0.006,0.0124 0.0127,-0.0768 0.008,-0.0505 0.006,-0.0124 0.002,-0.005 0.005,-0.0114 0.007,-0.0139 v -5.2e-4 c -0.0117,-0.10474 -0.0417,-0.34212 -0.0522,-0.38085 -0.0828,-0.40817 -0.18403,-0.8139 -0.3204,-1.20768 -0.0569,-0.18792 -0.0416,-0.23181 -0.20567,-0.46716 -0.13692,-0.23358 -0.29231,-0.45723 -0.46974,-0.66197 -0.0344,-0.0408 -0.0684,-0.0817 -0.10284,-0.12248 -0.0233,-0.0276 -0.0706,-0.0466 -0.0703,-0.0827 3e-5,-0.002 0.001,-0.003 0.002,-0.005 -0.0216,-0.0118 -0.0513,-0.0283 -0.0553,-0.0305 -0.18612,-0.13294 -0.43959,-0.10449 -0.65112,-0.17259 -0.30983,-0.0289 -0.61841,-0.0577 -0.92863,-0.0605 z m 2.85358,3.26802 c 0.003,0.004 0.006,0.006 0.0103,0.004 2.4e-4,-1e-4 -0.004,-0.0314 -0.004,-0.0372 -9.6e-4,0.008 -0.005,0.0238 -0.006,0.0331 z m -1.17926,-2.98225 c 0.0104,0.009 0.0217,0.0196 0.0294,0.0238 0.0259,0.0135 0.10136,0.0559 0.0796,0.0367 -0.005,-0.004 -0.0578,-0.0324 -0.10904,-0.0605 z m 1.12861,3.2334 c -0.01,0.0263 -0.0207,0.055 -0.0486,0.12144 -0.006,0.0903 0.0208,-0.004 0.0486,-0.12144 z" />
  </g>
</svg>
